<?xml version="1.0" standalone="no"?>
<!DOCTYPE svg PUBLIC "-//W3C//DTD SVG 1.1//EN" "http://www.w3.org/Graphics/SVG/1.1/DTD/svg11.dtd" >
<svg xmlns="http://www.w3.org/2000/svg">
<metadata></metadata>
<defs>
<font id="pacayamedium" horiz-adv-x="1011" >
<font-face units-per-em="2048" ascent="1638" descent="-410" />
<missing-glyph horiz-adv-x="417" />
<glyph horiz-adv-x="2048" />
<glyph horiz-adv-x="2048" />
<glyph unicode="&#xd;" horiz-adv-x="2048" />
<glyph unicode=" "  horiz-adv-x="417" />
<glyph unicode="&#x09;" horiz-adv-x="417" />
<glyph unicode="&#xa0;" horiz-adv-x="417" />
<glyph unicode="!" horiz-adv-x="415" d="M74 123q0 55 40 95t95 40t95 -40t40 -95t-40 -95t-95 -40t-95 40t-40 95zM98 391v920h219v-920h-219z" />
<glyph unicode="&#x22;" horiz-adv-x="688" d="M57 1311h217l-45 -539h-127zM412 1311h217l-45 -539h-127z" />
<glyph unicode="#" horiz-adv-x="1114" d="M57 348l11 160h180l16 295h-166l11 160h163l19 348h188l-18 -348h219l18 348h189l-19 -348h183l-11 -160h-180l-16 -295h166l-11 -160h-163l-19 -348h-190l18 348h-215l-18 -348h-191l19 348h-183zM438 508h217l15 295h-217z" />
<glyph unicode="$" horiz-adv-x="944" d="M55 293l113 133q121 -131 276 -131q106 0 162 44.5t56 113.5q0 48 -60 79.5t-141 36.5q-148 9 -247 90.5t-99 206.5q0 124 81.5 207t196.5 105v225h172v-225q43 -5 77 -14t66.5 -28t45 -27t46.5 -37t38 -32l-95 -131q-52 49 -108.5 75t-140.5 26q-63 0 -111.5 -43 t-48.5 -109q0 -39 34.5 -67t74.5 -39t81 -13q84 -5 164 -41t136.5 -106t56.5 -156q0 -135 -85 -213t-231 -92v-223h-172v223q-93 8 -164 37t-103.5 56t-70.5 69z" />
<glyph unicode="%" horiz-adv-x="1015" d="M57 879q0 80 60 143t145 63q80 0 142.5 -57.5t62.5 -142.5q0 -80 -60 -143.5t-145 -63.5q-80 0 -142.5 58t-62.5 143zM92 256l692 694l134 -133l-693 -694zM199 883q0 -26 18.5 -45t42.5 -19q26 0 46 20t20 44q0 25 -20 43t-44 18q-26 0 -44.5 -18.5t-18.5 -42.5z M543 188q0 80 60 143.5t145 63.5q80 0 142 -57.5t62 -142.5q0 -81 -59.5 -144t-144.5 -63q-80 0 -142.5 57.5t-62.5 142.5zM684 190q0 -25 20 -43t44 -18q26 0 44.5 18.5t18.5 42.5q0 26 -18.5 45t-42.5 19q-26 0 -46 -20t-20 -44z" />
<glyph unicode="&#x26;" horiz-adv-x="1173" d="M61 352q0 102 63 205t167 186q-111 153 -111 244q0 338 338 338q157 0 252.5 -94t95.5 -211h-182q0 65 -32.5 98t-123.5 33q-83 0 -113 -44.5t-30 -123.5q0 -56 71 -160t162 -205l218 -237q28 39 55.5 82t49 79.5t26.5 43.5l139 -90q-42 -127 -141 -258l141 -156 l-119 -115l-133 144q-154 -140 -322 -140q-471 0 -471 381zM270 352q0 -87 63.5 -146t190.5 -59q95 0 201 103l-190 205q-104 113 -127 141q-138 -124 -138 -244z" />
<glyph unicode="'" horiz-adv-x="333" d="M57 1311h217l-45 -539h-127z" />
<glyph unicode="(" horiz-adv-x="540" d="M66 489v332q0 218 95.5 367t244.5 194l75 -168q-33 -19 -53.5 -34.5t-51 -51.5t-48 -81.5t-30.5 -122.5t-13 -176v-185q0 -82 8 -149t24.5 -113.5t33.5 -80t42.5 -58.5t43 -37.5t44.5 -28.5l-75 -168q-149 45 -244.5 194t-95.5 367z" />
<glyph unicode=")" horiz-adv-x="548" d="M63 96q23 13 38 23t37.5 30.5t37.5 42.5t32.5 58t27.5 78.5t17 103t7 131.5v185q0 82 -8 149t-25 113.5t-33.5 79.5t-42.5 58t-43.5 37.5t-44.5 28.5l76 168q149 -45 244.5 -194t95.5 -367v-332q0 -218 -95.5 -367t-244.5 -194z" />
<glyph unicode="*" horiz-adv-x="915" d="M51 940l68 205l289 -158l-62 324h217l-61 -324l289 158l67 -205l-328 -43l240 -225l-174 -127l-141 297l-142 -297l-174 127l240 225z" />
<glyph unicode="+" horiz-adv-x="839" d="M53 485v189h269v268h188v-268h268v-189h-268v-268h-188v268h-269z" />
<glyph unicode="," horiz-adv-x="391" d="M59 106q0 121 144 121q46 0 77.5 -30t43.5 -71.5t12 -90.5q0 -79 -88.5 -188t-138.5 -138l-41 60q53 51 81.5 92.5t28.5 83.5q0 24 -18.5 38t-41 21t-41 32.5t-18.5 69.5z" />
<glyph unicode="-" horiz-adv-x="657" d="M53 485v189h543v-189h-543z" />
<glyph unicode="." horiz-adv-x="389" d="M59 123q0 55 40 95t96 40q55 0 95 -40t40 -95t-40 -95t-95 -40q-56 0 -96 40t-40 95z" />
<glyph unicode="/" horiz-adv-x="1067" d="M49 0l758 1311h217l-756 -1311h-219z" />
<glyph unicode="0" horiz-adv-x="1009" d="M63 446v385q0 133 51.5 244.5t153.5 181.5t234 70q83 0 162.5 -35t140.5 -95t98 -147.5t37 -185.5v-385q0 -133 -51.5 -244.5t-153 -181t-233.5 -69.5q-83 0 -162.5 34.5t-140.5 94.5t-98.5 147.5t-37.5 185.5zM283 520q0 -161 55 -261.5t164 -100.5q62 0 106.5 32 t68 88.5t34 122t10.5 144.5v246q0 161 -55 261.5t-164 100.5q-62 0 -106.5 -32t-68 -88.5t-34 -122t-10.5 -144.5v-246z" />
<glyph unicode="1" horiz-adv-x="653" d="M43 709l348 602h180v-1311h-219v901l-110 -192h-199z" />
<glyph unicode="2" horiz-adv-x="929" d="M70 0v195l417 497q150 180 150 297q0 70 -44 114t-126 44q-90 0 -138 -45.5t-48 -122.5h-201q0 173 110.5 262.5t286.5 89.5q181 0 275 -91t94 -247q0 -104 -47.5 -203.5t-180.5 -250.5l-319 -365h561v-174h-790z" />
<glyph unicode="3" horiz-adv-x="948" d="M63 336h201q0 -77 48.5 -122.5t138.5 -45.5q37 0 67 5.5t60 20.5t50.5 39.5t33 65.5t12.5 96q0 51 -16 89.5t-40.5 61t-59.5 36.5t-68 19t-70 5h-51v185h82q79 0 124.5 60.5t45.5 135.5q0 73 -38.5 116.5t-119.5 43.5q-89 0 -131.5 -44.5t-42.5 -123.5h-201 q0 174 105 263t280 89q179 0 267.5 -94t88.5 -252q0 -168 -98 -272q152 -102 152 -314q0 -415 -422 -415q-176 0 -287 89.5t-111 262.5z" />
<glyph unicode="4" horiz-adv-x="970" d="M57 254v154l531 903h180v-883h141v-174h-141v-254h-219v254h-492zM268 428h281v473z" />
<glyph unicode="5" horiz-adv-x="944" d="M61 336h201q0 -77 48.5 -122.5t138.5 -45.5q92 0 157.5 72.5t65.5 205.5q0 63 -23.5 115t-61.5 83t-81.5 48t-87.5 17h-305l53 602h625v-174h-445l-20 -244h102q198 0 325.5 -120t127.5 -322q0 -224 -115.5 -345.5t-306.5 -121.5q-176 0 -287 89.5t-111 262.5z" />
<glyph unicode="6" horiz-adv-x="995" d="M57 399q0 169 48.5 330t127 282.5t171.5 211t190 137.5l100 -152q-80 -45 -189 -168t-186 -270q80 25 177 25q187 0 312.5 -111.5t125.5 -282.5q0 -207 -113.5 -312t-324.5 -105q-204 0 -321.5 116t-117.5 299zM276 403q0 -116 63 -180.5t157 -64.5q112 0 165.5 54 t53.5 185q0 92 -65 158t-154 66q-110 0 -165 -58.5t-55 -159.5z" />
<glyph unicode="7" horiz-adv-x="925" d="M45 1137v174h840l-377 -1311h-227l325 1137h-561z" />
<glyph unicode="8" horiz-adv-x="1001" d="M59 399q0 228 172 332q-106 95 -106 260q0 155 98 245.5t275 90.5q159 0 265.5 -94.5t106.5 -239.5q0 -182 -106 -274q80 -54 126 -136.5t46 -181.5q0 -207 -113.5 -312t-324.5 -105q-204 0 -321.5 116t-117.5 299zM279 403q0 -117 62.5 -181t156.5 -64q112 0 165.5 54 t53.5 185q0 92 -65 158t-154 66q-110 0 -164.5 -58.5t-54.5 -159.5zM322 993q0 -94 50 -146t126 -52q91 0 133.5 44t42.5 150q0 75 -52 127.5t-124 52.5q-89 0 -132.5 -47t-43.5 -129z" />
<glyph unicode="9" horiz-adv-x="993" d="M53 911q0 207 114 312.5t325 105.5q204 0 321 -116.5t117 -299.5q0 -136 -32 -268t-85 -238.5t-123 -197.5t-145 -154.5t-152 -101.5l-100 151q79 45 188.5 168.5t186.5 270.5q-80 -25 -176 -25q-187 0 -313 111t-126 282zM272 915q0 -92 65 -157.5t155 -65.5 q110 0 164.5 58t54.5 159q0 117 -62.5 181.5t-156.5 64.5q-112 0 -166 -54.5t-54 -185.5z" />
<glyph unicode=":" horiz-adv-x="409" d="M70 123q0 55 40 95t95 40t95 -40t40 -95t-40 -95t-95 -40t-95 40t-40 95zM70 762q0 56 40 95.5t95 39.5t95 -39.5t40 -95.5t-40 -95.5t-95 -39.5t-95 39.5t-40 95.5z" />
<glyph unicode=";" horiz-adv-x="415" d="M70 106q0 121 143 121q46 0 77.5 -30t43.5 -71.5t12 -90.5q0 -79 -88.5 -188t-138.5 -138l-41 60q53 51 81.5 92.5t28.5 83.5q0 24 -18.5 38t-40.5 21t-40.5 32.5t-18.5 69.5zM70 762q0 56 40 95.5t95 39.5t95 -39.5t40 -95.5t-40 -95.5t-95 -39.5t-95 39.5t-40 95.5z " />
<glyph unicode="&#x3c;" horiz-adv-x="1017" d="M51 580l793 557l108 -156l-573 -401l573 -402l-108 -155z" />
<glyph unicode="=" horiz-adv-x="858" d="M63 297v188h725v-188h-725zM63 674v188h725v-188h-725z" />
<glyph unicode="&#x3e;" horiz-adv-x="1028" d="M68 178l573 402l-573 401l108 156l793 -557l-793 -557z" />
<glyph unicode="?" horiz-adv-x="843" d="M47 1157q44 70 130.5 122t209.5 52q104 0 182.5 -32t124 -87t68 -122t22.5 -144q0 -48 -27.5 -92t-66.5 -79.5t-78 -73t-66.5 -89.5t-27.5 -112v-109h-211v109q0 66 19 119.5t47 86t61 64t61 55.5t47 58t19 73q0 90 -42 145.5t-126 55.5q-131 0 -231 -119zM281 123 q0 55 39.5 95t95.5 40t95.5 -40t39.5 -95t-39.5 -95t-95.5 -40t-95.5 40t-39.5 95z" />
<glyph unicode="@" horiz-adv-x="1150" d="M63 496v307q0 108 27 196t73.5 148t111.5 101.5t139.5 60t158.5 18.5q264 0 388 -134.5t124 -381.5q0 -220 -64.5 -325t-209.5 -105q-73 0 -119 43q-45 -51 -117 -51q-102 0 -156 77t-54 207q0 122 59 203.5t151 81.5q111 0 161 -52.5t50 -156.5v-49q0 -129 39 -129 q20 0 32 17.5t19 73.5t7 157q0 174 -74 262t-236 88q-152 0 -221 -101t-69 -315v-168q0 -116 21 -198t61.5 -127.5t91 -65.5t116.5 -20q111 0 185 41l127 -144q-133 -71 -312 -71q-72 0 -139.5 14t-136 51t-119.5 93t-83 147t-32 207zM539 657q0 -110 36 -110q37 0 37 141 q0 82 -37 82q-36 0 -36 -113z" />
<glyph unicode="A" horiz-adv-x="1257" d="M49 0l479 1311h205l477 -1311h-233l-111 303h-491l-111 -303h-215zM426 444h389l-194 535z" />
<glyph unicode="B" horiz-adv-x="1013" d="M82 0v1311h383q76 0 148 -23t129.5 -65.5t92.5 -108.5t35 -145q0 -160 -135 -271q96 -56 156.5 -138t60.5 -173q0 -96 -38 -172.5t-100 -122t-136 -69t-152 -23.5h-444zM301 174h195q237 0 237 205q0 88 -77 151.5t-189 63.5h-166v-420zM301 768h113q111 0 174 59t63 134 q0 78 -55.5 126t-163.5 48h-131v-367z" />
<glyph unicode="C" horiz-adv-x="1036" d="M66 414v458q0 142 66 245.5t177 154.5t252 51q301 0 393 -215l-145 -88q-28 41 -50 64.5t-66.5 44t-102.5 20.5q-135 0 -220 -71.5t-85 -176.5v-452q0 -128 70.5 -207.5t199.5 -79.5q45 0 82.5 4.5t66.5 15.5t49 19.5t38 25t25.5 23.5t21 24.5t14.5 18.5l121 -105 q-20 -32 -57 -64.5t-91 -64t-131.5 -51.5t-163.5 -20q-205 0 -334.5 113t-129.5 313z" />
<glyph unicode="D" horiz-adv-x="1069" d="M82 0v1311h436q227 0 354 -119.5t127 -323.5v-422q0 -214 -119.5 -330t-334.5 -116h-463zM301 174h213q266 0 266 289v397q0 137 -76.5 207t-218.5 70h-184v-963z" />
<glyph unicode="E" horiz-adv-x="950" d="M82 0v1311h743v-176h-524v-367h356v-174h-356v-420h586v-174h-805z" />
<glyph unicode="F" horiz-adv-x="899" d="M82 0v1311h772v-176h-553v-367h356v-174h-356v-594h-219z" />
<glyph unicode="G" horiz-adv-x="1146" d="M66 414v458q0 140 74 244.5t192 155.5t260 51q152 0 265.5 -55.5t158.5 -159.5l-146 -88q-88 129 -249 129q-138 0 -237 -72.5t-99 -175.5v-452q0 -124 89 -205.5t222 -81.5q74 0 128.5 23.5t85 59.5t48.5 89.5t23.5 101.5t5.5 109h-248v174h442v-238q0 -242 -138 -367.5 t-372 -125.5q-101 0 -191.5 28.5t-160.5 81t-111.5 134.5t-41.5 182z" />
<glyph unicode="H" horiz-adv-x="1081" d="M82 0v1311h219v-543h479v543h219v-1311h-219v594h-479v-594h-219z" />
<glyph unicode="I" horiz-adv-x="540" d="M70 0v141h92v1028h-92v142h403v-142h-92v-1028h92v-141h-403z" />
<glyph unicode="J" horiz-adv-x="1038" d="M55 188l121 105q1 -1 14.5 -18.5t21 -24.5t25.5 -23.5t38 -25t49 -19.5t66.5 -15.5t82.5 -4.5q129 0 199.5 79.5t70.5 207.5v862h220v-897q0 -200 -129.5 -313t-335.5 -113q-86 0 -163.5 20t-131.5 51.5t-91 64t-57 64.5z" />
<glyph unicode="K" horiz-adv-x="1112" d="M82 0v1311h219v-500l500 500h250l-521 -520l533 -791h-242l-434 647l-86 -86v-561h-219z" />
<glyph unicode="L" horiz-adv-x="944" d="M82 0v1311h219v-1137h586v-174h-805z" />
<glyph unicode="M" horiz-adv-x="1353" d="M82 0v1311h186l410 -973l407 973h187v-1311h-219v762l-316 -762h-121l-315 762v-762h-219z" />
<glyph unicode="N" horiz-adv-x="1110" d="M82 0v1311h221l506 -916v916h219v-1311h-221l-506 915v-915h-219z" />
<glyph unicode="O" horiz-adv-x="1097" d="M68 365v548q0 192 134 303t345 111q69 0 135.5 -13.5t129.5 -43.5t110 -73t75.5 -108t28.5 -143v-549q0 -192 -134 -302.5t-345 -110.5q-69 0 -135.5 13.5t-129.5 43.5t-110 73t-75.5 108t-28.5 143zM287 438q0 -148 65 -214t195 -66q147 0 203.5 74t56.5 231v409 q0 148 -65 214.5t-195 66.5q-147 0 -203.5 -74t-56.5 -231v-410z" />
<glyph unicode="P" d="M82 0v1311h444q78 0 152 -23.5t136 -69t100 -122t38 -172.5q0 -75 -42.5 -146.5t-108 -122t-146 -81.5t-155.5 -31h-199v-543h-219zM301 719h166q112 0 189 62.5t77 150.5q0 205 -237 205h-195v-418z" />
<glyph unicode="Q" horiz-adv-x="1138" d="M68 365v548q0 127 68 222.5t180.5 143.5t250.5 48q69 0 137.5 -13.5t134.5 -43.5t116.5 -73t81 -108t30.5 -143v-549q0 -192 -172 -323q-77 -58 -210.5 -119t-223.5 -74q28 0 91 -11t132 -11q82 0 143.5 25.5t77.5 49.5l90 -73q-30 -56 -116.5 -110t-186.5 -54 q-58 0 -117 19.5t-125.5 39t-144.5 19.5l-6 172q112 19 193 41q-81 9 -153.5 35.5t-134.5 71t-99 114.5t-37 156zM287 438q0 -280 280 -280q149 0 215 76t66 229v409q0 281 -281 281q-149 0 -214.5 -76t-65.5 -229v-410z" />
<glyph unicode="R" horiz-adv-x="1050" d="M82 0v1311h444q78 0 152 -23.5t136 -69t100 -122t38 -172.5q0 -109 -81.5 -203.5t-200.5 -142.5q110 -77 188 -218.5t135 -359.5h-241q-28 190 -107.5 336.5t-204.5 206.5h-139v-543h-219zM301 719h166q112 0 189 62.5t77 150.5q0 205 -237 205h-195v-418z" />
<glyph unicode="S" horiz-adv-x="1069" d="M59 195l121 108q40 -67 137 -110t215 -43q141 0 197.5 52t56.5 142q0 80 -78 138.5t-190 88.5q-60 16 -113.5 37.5t-107.5 55t-93 74t-63 96.5t-24 120q0 81 27 146.5t69 106.5t97 68.5t108.5 38.5t105.5 11q67 0 128.5 -15.5t104.5 -36.5t85.5 -53.5t65.5 -55.5t50 -54 l-108 -100q-41 55 -127.5 98t-187.5 43q-199 0 -199 -205q0 -41 22.5 -75t62.5 -59t77 -40.5t84 -30.5q71 -22 140 -55t135.5 -80.5t107.5 -111.5t41 -134q0 -175 -123 -276.5t-336 -101.5q-96 0 -181.5 20.5t-145 54t-99.5 68.5t-62 70z" />
<glyph unicode="T" horiz-adv-x="1015" d="M45 1137v174h926v-174h-353v-1137h-219v1137h-354z" />
<glyph unicode="U" horiz-adv-x="1105" d="M72 442v869h219v-795q0 -358 260 -358q65 0 112.5 21.5t75.5 56t44.5 86.5t22 103t5.5 116v770h219v-836q0 -132 -57.5 -243t-168.5 -179.5t-253 -68.5q-204 0 -341.5 129t-137.5 329z" />
<glyph unicode="V" horiz-adv-x="1236" d="M37 1311h233l357 -979l356 979h215l-479 -1311h-205z" />
<glyph unicode="W" horiz-adv-x="1615" d="M39 1311h227l236 -881l235 881h158l235 -883l236 883h209l-354 -1311h-201l-213 797l-215 -797h-201z" />
<glyph unicode="X" horiz-adv-x="1110" d="M53 0l377 684l-348 627h252l223 -402l221 402h230l-336 -606l391 -705h-252l-266 477l-264 -477h-228z" />
<glyph unicode="Y" horiz-adv-x="1077" d="M33 1311h252l266 -477l264 477h227l-391 -707v-604h-219v592z" />
<glyph unicode="Z" horiz-adv-x="1112" d="M53 0l686 1137h-626v174h944l-686 -1137h649v-174h-967z" />
<glyph unicode="[" horiz-adv-x="559" d="M82 -92v1495h414v-201h-242v-1093h242v-201h-414z" />
<glyph unicode="\" horiz-adv-x="1062" d="M41 1311h217l758 -1311h-219z" />
<glyph unicode="]" horiz-adv-x="563" d="M68 -92v201h241v1093h-241v201h413v-1495h-413z" />
<glyph unicode="_" horiz-adv-x="802" d="M49 -31h707v-188h-707v188z" />
<glyph unicode="`" horiz-adv-x="475" d="M20 1395l140 166l295 -312l-82 -96z" />
<glyph unicode="a" horiz-adv-x="1069" d="M61 356q0 138 96 229t265 91q126 0 221 -64v19q0 94 -40 154.5t-124 60.5h-325v174h366q58 0 117 -21t110 -60t83 -101.5t32 -137.5v-499q0 -30 13.5 -50.5t36 -29.5t40.5 -12t37 -3h19l12 -77q-4 -2 -15.5 -8t-17 -8.5t-17 -7t-20 -7t-20.5 -5.5t-25 -4t-28 -1 q-178 0 -220 112q-98 -106 -237 -106q-104 0 -176 26t-111 76.5t-55.5 113t-16.5 146.5zM281 340q0 -172 157 -172q52 0 93 13t63 33.5t33 37t16 31.5v163q-50 56 -184 56q-178 0 -178 -162z" />
<glyph unicode="b" horiz-adv-x="1007" d="M80 0v1274l219 69v-430q117 117 252 117q80 0 149.5 -25.5t124 -74t86 -126.5t31.5 -175v-236q0 -103 -32 -183.5t-85 -127.5t-116 -70.5t-131 -23.5q-112 0 -181.5 34t-122.5 95l-49 -117h-145zM299 279q17 -27 30.5 -42.5t41.5 -35.5t71.5 -29.5t104.5 -9.5 q82 0 129 67t47 181v211q0 65 -20 113.5t-53 73.5t-66 36.5t-66 11.5q-56 0 -93.5 -8.5t-60 -28.5t-34 -39t-26.5 -53q-3 -8 -5 -12v-436z" />
<glyph unicode="c" horiz-adv-x="946" d="M61 414v172q0 218 112 334t321 116q142 0 227 -58t133 -171l-106 -70q-40 59 -91 92t-135 33q-241 0 -241 -248v-165q0 -136 52.5 -211.5t176.5 -75.5q45 0 82 4t65.5 14t47 16.5t36.5 22.5t24.5 21.5t20.5 23.5l13 17l88 -93q-126 -200 -402 -200q-201 0 -312.5 111 t-111.5 315z" />
<glyph unicode="d" horiz-adv-x="1130" d="M61 393v236q0 97 31.5 175t86 126.5t124.5 74t150 25.5q135 0 252 -117v361l219 69v-1142q0 -30 13.5 -50.5t36 -29.5t40.5 -12t37 -3h18l12 -77q-61 -41 -143 -41q-91 0 -144.5 27.5t-74.5 88.5q-109 -116 -293 -116q-68 0 -131 23.5t-116.5 70.5t-85.5 127.5t-32 183.5 zM281 410q0 -114 47 -181t129 -67q61 0 104.5 9.5t71.5 29.5t41.5 35.5t30.5 42.5v436q-30 68 -49 88q-47 53 -171 53q-33 0 -66 -11.5t-65.5 -36.5t-52.5 -73.5t-20 -113.5v-211z" />
<glyph unicode="e" horiz-adv-x="989" d="M55 522q0 102 25 187t67.5 144t99.5 100t120 60t131 19q420 0 420 -524l-644 -43q6 -154 67.5 -228.5t195.5 -74.5q108 0 188 40t117 83l80 -101q-50 -68 -84 -97q-113 -99 -322 -99q-228 0 -344.5 137t-116.5 397zM281 614l417 27q0 101 -54.5 159t-145.5 58 q-184 0 -217 -244z" />
<glyph unicode="f" horiz-adv-x="587" d="M55 879v141h95v94q0 109 57 159t176 50q86 0 143 -41l-12 -78h-18q-19 0 -37 -3t-40.5 -11.5t-36 -29t-13.5 -50.5v-90h153v-141h-153v-879h-219v879h-95z" />
<glyph unicode="g" horiz-adv-x="1001" d="M61 406v223q0 97 31.5 175t86 126.5t124.5 74t150 25.5q135 0 252 -117v74l219 70v-883q0 -306 -161 -445t-478 -139v187q114 0 194.5 23t126 68t68 100.5t28.5 131.5q-100 -100 -276 -100q-68 0 -131 24t-116.5 71t-85.5 127.5t-32 183.5zM281 422q0 -114 47 -181 t129 -67q61 0 104.5 9.5t71.5 29.5t41.5 35.5t30.5 42.5v424q-8 16 -20 33.5t-38 45t-68.5 45t-93.5 17.5q-33 0 -66 -11.5t-65.5 -36.5t-52.5 -73.5t-20 -113.5v-199z" />
<glyph unicode="h" horiz-adv-x="1015" d="M80 0v1278l219 70v-443q104 115 281 115h82q137 0 208.5 -67.5t71.5 -223.5v-729h-219v713q0 133 -152 133h-69q-72 0 -128.5 -56t-74.5 -139v-651h-219z" />
<glyph unicode="i" horiz-adv-x="413" d="M72 1319q0 55 40 95t95 40t95 -40t40 -95t-40 -95t-95 -40t-95 40t-40 95zM98 0v987l219 70v-1057h-219z" />
<glyph unicode="j" horiz-adv-x="509" d="M37 -244l12 78q11 -2 23 -2q19 0 36.5 3.5t39 12t34.5 29.5t13 51v1059l219 70v-1133q0 -109 -57.5 -159t-176.5 -50q-11 0 -21.5 0.5t-20.5 2.5t-17 3t-16.5 4.5t-14.5 5t-14.5 6t-12.5 6t-13.5 7t-12.5 6.5zM166 1319q0 55 40 95t95 40t95 -40t40 -95t-40 -95t-95 -40 t-95 40t-40 95z" />
<glyph unicode="k" horiz-adv-x="937" d="M80 0v1278l219 70v-635l307 307h250l-356 -356l385 -664h-232l-297 520l-57 -57v-463h-219z" />
<glyph unicode="l" horiz-adv-x="503" d="M78 197v1077l219 69v-1142q0 -30 13.5 -51t36 -30t40.5 -12.5t37 -3.5l18 2l13 -77q-62 -41 -144 -41q-119 0 -176 50t-57 159z" />
<glyph unicode="m" horiz-adv-x="1654" d="M76 0v950l219 70v-115q104 115 280 115h82q202 0 258 -143q101 143 304 143h81q138 0 209.5 -67.5t71.5 -223.5v-729h-219v713q0 133 -152 133h-69q-72 0 -128.5 -56t-74.5 -139v-651h-219v713q0 133 -152 133h-69q-72 0 -128.5 -56t-74.5 -139v-651h-219z" />
<glyph unicode="n" d="M76 0v950l219 70v-115q104 115 280 115h82q138 0 209.5 -67.5t71.5 -223.5v-729h-219v713q0 133 -152 133h-69q-72 0 -128.5 -56t-74.5 -139v-651h-219z" />
<glyph unicode="o" horiz-adv-x="1003" d="M63 319v349q0 159 102.5 255.5t268.5 96.5h160q58 0 117 -21t110 -60t83 -101.5t32 -137.5v-348q0 -159 -102.5 -255.5t-268.5 -96.5h-159q-58 0 -117 21t-110.5 59.5t-83.5 101t-32 137.5zM272 653q0 -49 3.5 -104t10 -123t9.5 -104q11 -154 180 -154q132 0 192 47 t60 143q0 52 -3.5 107t-10 127.5t-8.5 105.5q-11 148 -193 148q-115 0 -177.5 -47.5t-62.5 -145.5z" />
<glyph unicode="p" horiz-adv-x="1003" d="M76 -258v1208l219 70v-107q117 117 252 117q80 0 149.5 -25.5t124 -74t86 -126.5t31.5 -175v-236q0 -103 -32 -183.5t-85.5 -127.5t-116.5 -70.5t-131 -23.5q-174 0 -278 104v-350h-219zM295 279q17 -27 30.5 -42.5t41.5 -35.5t71.5 -29.5t104.5 -9.5q82 0 129 67t47 181 v211q0 65 -20 113.5t-53 73.5t-66 36.5t-66 11.5q-30 0 -54.5 -3t-42 -7t-33 -13.5t-24.5 -16.5t-19.5 -21.5t-15 -23t-15 -28t-15.5 -28.5v-436z" />
<glyph unicode="q" horiz-adv-x="1097" d="M61 406v223q0 97 31.5 175t86 126.5t124.5 74t150 25.5q135 0 252 -117v37l219 70v-1092q0 -30 13.5 -51t36 -29.5t40.5 -12t37 -3.5l18 2l12 -78q-68 -41 -143 -41q-119 0 -176 50t-57 159v180q-104 -104 -279 -104q-68 0 -131 24t-116.5 71t-85.5 127.5t-32 183.5z M281 422q0 -114 47 -181t129 -67q61 0 104.5 9.5t71.5 29.5t41.5 35.5t30.5 42.5v424q-8 16 -20 33.5t-38 45t-68.5 45t-93.5 17.5q-33 0 -66 -11.5t-65.5 -36.5t-52.5 -73.5t-20 -113.5v-199z" />
<glyph unicode="r" horiz-adv-x="714" d="M76 0v950l219 70v-115q104 115 280 115h82l-22 -213q-68 39 -137 39q-72 0 -128.5 -56t-74.5 -139v-651h-219z" />
<glyph unicode="s" horiz-adv-x="927" d="M61 160l82 112q57 -66 115 -94t170 -28q106 0 161.5 44t55.5 113q0 48 -60 80t-141 37q-140 9 -243 102.5t-103 194.5q0 73 31 134t81 100.5t111 61t123 21.5q66 0 118.5 -11.5t90.5 -34t62 -42t54 -50.5t46 -44l-88 -92q-52 48 -108.5 74t-141.5 26q-63 0 -111.5 -42.5 t-48.5 -108.5q0 -39 34.5 -67t75 -39t81.5 -13q62 -4 124 -27t114.5 -60.5t85 -94t32.5 -121.5q0 -156 -105 -232.5t-286 -76.5q-90 0 -159 14t-114.5 42t-71 50.5t-56.5 58.5q-7 9 -11 13z" />
<glyph unicode="t" horiz-adv-x="593" d="M55 879v141h95v162l219 69v-231h153v-141h-153v-678q0 -30 13.5 -51t36 -30t40.5 -12.5t37 -3.5l18 2l12 -77q-64 -41 -143 -41q-119 0 -176 50t-57 159v682h-95z" />
<glyph unicode="u" d="M72 291v729h219v-713q0 -133 151 -133h70q72 0 128.5 56t74.5 139v651h219v-1020h-219v115q-104 -115 -281 -115h-82q-137 0 -208.5 67.5t-71.5 223.5z" />
<glyph unicode="v" horiz-adv-x="1060" d="M45 1020h217l262 -719l260 719h226l-369 -1020h-227z" />
<glyph unicode="w" horiz-adv-x="1497" d="M47 1020h211l188 -709l191 709h194l197 -735l197 735h219l-273 -1020h-260l-174 653l-174 -655l-198 2h-48z" />
<glyph unicode="x" horiz-adv-x="1103" d="M59 0l365 520l-350 500h266l217 -309l217 309h230l-332 -473l383 -547h-269l-247 356l-250 -356h-230z" />
<glyph unicode="y" horiz-adv-x="1083" d="M45 1020h217l273 -750l272 750h225l-375 -1034q-74 -204 -199 -300t-311 -96v179q103 0 166.5 50t110.5 154z" />
<glyph unicode="z" horiz-adv-x="1058" d="M55 0l592 846h-532v174h884l-591 -846h550v-174h-903z" />
<glyph unicode="{" horiz-adv-x="589" d="M53 655q7 5 18 14t39 33t50 44t39.5 41t17.5 30q0 82 -41 218t-41 182q0 54 31.5 88.5t119 55.5t238.5 21l2 -168q-86 -10 -117.5 -28t-31.5 -53q0 -22 14.5 -70.5t29.5 -118.5t15 -145q0 -20 -36 -56t-72 -62l-37 -26q6 -4 15.5 -11t34.5 -26.5t44.5 -37t35 -37.5 t15.5 -33q0 -70 -14 -141t-28.5 -122t-14.5 -71q0 -33 31.5 -51.5t115.5 -28.5l-2 -168q-114 0 -191.5 11t-120 34t-60 52t-17.5 69q0 46 41 182t41 218q0 15 -41 55t-82 73z" />
<glyph unicode="|" horiz-adv-x="335" d="M82 -92v1495h172v-1495h-172z" />
<glyph unicode="}" horiz-adv-x="602" d="M68 96q84 10 115.5 28.5t31.5 51.5q0 20 -14.5 71t-28.5 122t-14 141q0 20 36 56t72 62l37 27q-16 11 -40 28.5t-64.5 56.5t-40.5 59q0 75 15 145t29.5 118.5t14.5 70.5q0 35 -31.5 53t-117.5 28l2 168q151 0 238.5 -21t119 -55.5t31.5 -88.5q0 -46 -41 -182t-41 -218 q0 -15 41 -55.5t82 -73.5l41 -33q-7 -5 -18 -14t-39 -33t-50 -43.5t-39.5 -40.5t-17.5 -30q0 -82 41 -218t41 -182q0 -40 -17.5 -69t-60 -52t-120 -34t-191.5 -11z" />
<glyph unicode="~" horiz-adv-x="911" d="M51 598q50 138 91 191t87 53q61 0 144 -31t157 -62.5t113 -31.5q15 0 26 14.5t36 63.5q3 5 4.5 8.5t4.5 8.5t5 9l133 -51q-50 -137 -91 -189.5t-87 -52.5q-61 0 -144 31t-157 62.5t-113 31.5q-15 0 -26 -14.5t-36 -63.5q-9 -17 -14 -26z" />
<glyph unicode="&#xa1;" horiz-adv-x="411" d="M70 971q0 55 40 95t95 40t95 -40t40 -95t-40 -95t-95 -40t-95 40t-40 95zM96 -217v919h219v-919h-219z" />
<glyph unicode="&#xa2;" horiz-adv-x="942" d="M55 653q0 198 91.5 312.5t265.5 134.5v211h147v-211q109 -13 178 -70t111 -156l-107 -69q-40 59 -90.5 92t-134.5 33q-242 0 -242 -250q0 -135 53 -211t177 -76q45 0 82 4t65.5 14t47 16.5t36.5 22.5t24.5 21.5t20.5 22.5l13 18l88 -92q-104 -170 -322 -197v-223h-147 v223q-172 19 -264.5 129t-92.5 301z" />
<glyph unicode="&#xa3;" horiz-adv-x="985" d="M72 0v109q28 0 46.5 27.5t30 105t11.5 207.5v217h-88v118h88v113q0 196 107 311t255 115q73 0 131.5 -19t99.5 -54t62.5 -62t46.5 -66l-121 -104q-3 4 -20 27t-30 36t-35 31.5t-49.5 27.5t-59.5 9q-168 0 -168 -287v-78h182v-118h-182v-217q0 -166 -33 -275h576v-174 h-850z" />
<glyph unicode="&#xa4;" horiz-adv-x="882" d="M57 332l123 123q-28 58 -28 125t28 125l-123 122l133 134l125 -125q58 28 121 28q67 0 125 -28l125 125l133 -134l-127 -127q29 -60 29 -120q0 -61 -29 -121l127 -127l-133 -133l-125 125q-60 -29 -125 -29q-61 0 -121 29l-125 -125zM309 580q0 -52 37.5 -89.5 t89.5 -37.5t89.5 37.5t37.5 89.5t-37.5 89.5t-89.5 37.5t-89.5 -37.5t-37.5 -89.5z" />
<glyph unicode="&#xa5;" horiz-adv-x="1093" d="M41 1311h252l266 -477l264 477h228l-297 -537h153v-119h-219l-29 -51v-104h248v-119h-248v-381h-219v381h-258v119h258v92l-34 63h-224v119h158z" />
<glyph unicode="&#xa6;" horiz-adv-x="335" d="M82 -92v665h172v-665h-172zM82 737v666h172v-666h-172z" />
<glyph unicode="&#xa7;" horiz-adv-x="1007" d="M63 160l99 129q28 -32 40.5 -45.5t40 -36t51 -32t61.5 -17.5t85 -8q113 0 180.5 36t67.5 101q0 84 -201 96q-142 9 -244 93t-102 183q0 107 68 185q-105 81 -105 196q1 79 34 136.5t92.5 90t132.5 47.5t163 15q77 0 141.5 -12.5t103 -27t78.5 -44.5t54 -45t45 -49 l-98 -129q-28 32 -41 45.5t-40 36t-51 32t-62 17.5t-85 8q-112 0 -179.5 -36t-67.5 -101q0 -84 200 -96q142 -9 244 -93.5t102 -183.5q0 -107 -67 -184q104 -78 104 -197q-1 -79 -34 -136t-92.5 -89.5t-132.5 -47.5t-163 -15q-77 0 -141.5 12.5t-103 27t-78.5 44.5t-54 45 t-45 49zM360 651q0 -17 8 -30.5t24.5 -23t32 -16.5t41.5 -12.5t41.5 -8t43 -6.5t35.5 -5q65 33 65 110q0 17 -7.5 30.5t-24.5 23t-32 16.5t-41.5 12.5t-41 8.5t-43 7t-35.5 5q-66 -34 -66 -111z" />
<glyph unicode="&#xa8;" horiz-adv-x="856" d="M111 1530q0 50 35.5 85.5t84.5 35.5t85 -35.5t36 -85.5t-36 -85.5t-85 -35.5t-84.5 35.5t-35.5 85.5zM504 1530q0 50 36 85.5t85 35.5t84.5 -35.5t35.5 -85.5t-35.5 -85.5t-84.5 -35.5t-85 35.5t-36 85.5z" />
<glyph unicode="&#xa9;" horiz-adv-x="1462" d="M55 655q0 182 90 337t245 245t337 90t337 -90t245 -245t90 -337q0 -137 -53 -261t-143 -214t-214.5 -143t-261.5 -53t-261.5 53t-214.5 143t-143 214t-53 261zM231 655q0 -132 67.5 -246t182 -181.5t246.5 -67.5t246.5 67.5t182 181.5t67.5 246q0 99 -40 190.5 t-107 158.5t-158.5 107t-190.5 40t-190.5 -40t-158.5 -107t-107 -158.5t-40 -190.5zM387 655q0 166 88 257.5t248 91.5q114 0 181 -49.5t108 -145.5l-109 -72q-23 32 -40 51t-48 34.5t-70 15.5q-81 0 -119 -44.5t-38 -119.5q0 -89 37.5 -139t109.5 -50q45 0 79 8.5t57 25.5 t34.5 29.5t26.5 33.5l104 -95q-21 -33 -43 -57t-59 -52t-92.5 -43.5t-124.5 -15.5q-156 0 -243 88.5t-87 247.5z" />
<glyph unicode="&#xaa;" horiz-adv-x="886" d="M53 854q0 87 80.5 157t214.5 70q104 0 178 -51q-6 61 -39.5 100t-93.5 39h-266v142h299q64 0 125 -28t105 -89t44 -141v-277q0 -76 105 -76h18l8 -63q-4 -2 -14.5 -7t-15.5 -7.5t-16 -7t-20 -6.5t-21.5 -3.5t-26.5 -1.5q-137 0 -174 84q-82 -94 -199 -94q-79 0 -137.5 23 t-90.5 61.5t-47.5 82.5t-15.5 93zM233 842q0 -105 127 -105q39 0 70 9.5t48 22t29 28t16 24.5t5 15v53q-34 51 -151 51q-63 0 -103.5 -25t-40.5 -73z" />
<glyph unicode="&#xab;" horiz-adv-x="899" d="M51 580l303 376l82 -65l-155 -311l155 -308l-82 -69zM449 580l303 376l82 -65l-156 -311l156 -308l-82 -69z" />
<glyph unicode="&#xac;" horiz-adv-x="1019" d="M53 485v189h901v-377h-188v188h-713z" />
<glyph unicode="&#xad;" horiz-adv-x="645" d="M51 485v189h543v-189h-543z" />
<glyph unicode="&#xae;" horiz-adv-x="1462" d="M55 655q0 182 90 337t245 245t337 90t337 -90t245 -245t90 -337q0 -137 -53 -261t-143 -214t-214.5 -143t-261.5 -53t-261.5 53t-214.5 143t-143 214t-53 261zM231 655q0 -132 67.5 -246t182 -181.5t246.5 -67.5t246.5 67.5t182 181.5t67.5 246q0 99 -40 190.5 t-107 158.5t-158.5 107t-190.5 40t-190.5 -40t-158.5 -107t-107 -158.5t-40 -190.5zM457 328v667h227q66 0 117 -10t96 -34t69.5 -71t24.5 -116q0 -125 -125 -184q47 -38 78.5 -97t61.5 -155h-183q-42 149 -133 211q-18 -2 -55 -2v-209h-178zM635 680q94 0 136 19.5t42 70.5 q0 45 -40 64.5t-138 19.5v-174z" />
<glyph unicode="&#xaf;" horiz-adv-x="645" d="M51 1202v127h543v-127h-543z" />
<glyph unicode="&#xb0;" horiz-adv-x="468" d="M45 1319q0 77 55.5 132.5t132.5 55.5t133 -56t56 -132q0 -77 -56 -133t-133 -56q-76 0 -132 56t-56 133zM147 1319q0 -35 25.5 -60.5t60.5 -25.5t60.5 25.5t25.5 60.5t-25.5 60.5t-60.5 25.5t-60.5 -25.5t-25.5 -60.5z" />
<glyph unicode="&#xb1;" horiz-adv-x="870" d="M72 53v189h725v-189h-725zM72 567v189h268v207h188v-207h269v-189h-269v-207h-188v207h-268z" />
<glyph unicode="&#xb2;" horiz-adv-x="677" d="M61 567v144l283 237q96 82 96 144q0 37 -26.5 66.5t-75.5 29.5q-57 0 -86 -28t-29 -75h-153q0 120 76.5 183t197.5 63q123 0 189.5 -68t66.5 -169q0 -73 -42 -138.5t-134 -138.5l-139 -112h325v-138h-549z" />
<glyph unicode="&#xb3;" horiz-adv-x="686" d="M57 793h154q0 -32 31.5 -62.5t83.5 -30.5q59 0 98 27t39 76q0 48 -46 70t-112 22h-45v143h66q102 0 102 90q0 24 -23 45t-71 21q-55 0 -81 -26t-26 -66l-153 16q0 106 75.5 162.5t190.5 56.5q117 0 182.5 -54t65.5 -157q0 -86 -47 -145q82 -60 82 -176q0 -125 -79 -186.5 t-212 -61.5q-118 0 -196.5 64.5t-78.5 171.5z" />
<glyph unicode="&#xb4;" horiz-adv-x="475" d="M20 1249l295 312l140 -166l-353 -242z" />
<glyph unicode="&#xb5;" horiz-adv-x="1015" d="M76 -211v1231h219v-713q0 -133 151 -133h70q72 0 128.5 56t74.5 139v651h219v-1020h-219v115q-104 -115 -281 -115h-82q-25 0 -61 4v-211q0 -30 13 -51t34.5 -29.5t39 -12t36.5 -3.5l22 2l13 -78q-2 -1 -11.5 -6t-12 -6t-11.5 -5.5t-12.5 -5.5t-12.5 -4.5t-14.5 -5 t-14.5 -3.5t-17 -3t-18 -1.5t-20 -0.5q-119 0 -176 50t-57 159z" />
<glyph unicode="&#xb6;" horiz-adv-x="980" d="M55 924q0 96 38 172.5t100 122t136 69t152 23.5h418v-1311h-164v1137h-94v-1137h-164v543q-181 0 -301.5 109t-120.5 272z" />
<glyph unicode="&#xb7;" horiz-adv-x="380" d="M51 580q0 56 39.5 95.5t95.5 39.5t96 -40t40 -95q0 -56 -40 -96t-96 -40q-55 0 -95 40t-40 96z" />
<glyph unicode="&#xb8;" horiz-adv-x="454" d="M20 -332l25 49q40 -29 69.5 -40t67.5 -11q36 0 60 25.5t24 62.5q0 39 -62.5 65.5t-140.5 33.5l154 186h191l-146 -148q80 -12 126 -49t46 -92q0 -71 -56 -115.5t-165 -44.5q-111 0 -193 78z" />
<glyph unicode="&#xb9;" horiz-adv-x="481" d="M45 930l225 391h138v-754h-166v432l-39 -69h-158z" />
<glyph unicode="&#xba;" horiz-adv-x="827" d="M57 858v168q0 129 82.5 207t216.5 78h129q47 0 95 -17t89.5 -48t68 -81.5t26.5 -111.5v-168q0 -129 -83.5 -208t-217.5 -79h-129q-47 0 -94.5 17t-89 48.5t-67.5 82.5t-26 112zM229 995q0 -39 5 -74.5t6 -58.5q4 -69 43 -98t110 -29q110 0 153.5 41.5t43.5 132.5 q0 31 -1.5 51.5t-4.5 43.5t-4 43q-8 122 -162 122q-97 0 -143 -42t-46 -132z" />
<glyph unicode="&#xbb;" horiz-adv-x="903" d="M61 268l156 312l-156 307l82 69l303 -376l-303 -377zM459 268l155 312l-155 307l82 69l303 -376l-303 -377z" />
<glyph unicode="&#xbc;" horiz-adv-x="1349" d="M43 942l225 391h138v-753h-166v432l-39 -70h-158zM205 0l758 1311h184l-756 -1311h-186zM715 150v149l370 434h109v-448h94v-135h-94v-187h-166v187h-313zM881 285h147v172z" />
<glyph unicode="&#xbd;" horiz-adv-x="1445" d="M43 942l225 391h138v-753h-166v432l-39 -70h-158zM205 0l758 1311h184l-756 -1311h-186zM831 -37v143l283 238q96 82 96 143q0 37 -26.5 67t-75.5 30q-57 0 -86 -28t-29 -75h-153q0 120 76.5 183t197.5 63q123 0 189.5 -68.5t66.5 -169.5q0 -73 -42 -138t-134 -138 l-139 -113h325v-137h-549z" />
<glyph unicode="&#xbe;" horiz-adv-x="1497" d="M57 793h154q0 -32 31.5 -62.5t83.5 -30.5q59 0 98 27t39 76q0 48 -46 70t-112 22h-45v143h66q102 0 102 90q0 24 -23 45t-71 21q-55 0 -81 -26t-26 -66l-153 16q0 106 75.5 162.5t190.5 56.5q117 0 182.5 -54t65.5 -157q0 -86 -47 -145q82 -60 82 -176q0 -125 -79 -186.5 t-212 -61.5q-118 0 -196.5 64.5t-78.5 171.5zM352 0l758 1311h184l-755 -1311h-187zM862 150v149l371 434h108v-448h95v-135h-95v-187h-165v187h-314zM1028 285h148v172z" />
<glyph unicode="&#xbf;" horiz-adv-x="839" d="M59 168q0 41 20 79t49.5 66.5t64 62t64 65.5t49.5 77t20 96v109h211v-109q0 -66 -19 -119.5t-47 -86t-61 -64t-61 -55.5t-47 -58t-19 -73q0 -90 42 -145.5t126 -55.5q131 0 231 119l115 -119q-44 -70 -130.5 -122t-209.5 -52q-104 0 -183 32t-124.5 87t-68 122t-22.5 144 zM293 991q0 55 39.5 95t95.5 40t95.5 -40t39.5 -95t-39.5 -95t-95.5 -40t-95.5 40t-39.5 95z" />
<glyph unicode="&#xc0;" horiz-adv-x="1323" d="M49 0l479 1311h205l477 -1311h-233l-111 303h-491l-111 -303h-215zM334 1485l108 188l295 -239l-47 -82zM426 444h389l-194 535z" />
<glyph unicode="&#xc1;" horiz-adv-x="1323" d="M49 0l479 1311h205l477 -1311h-233l-111 303h-491l-111 -303h-215zM426 444h389l-194 535zM532 1434l295 239l109 -188l-356 -133z" />
<glyph unicode="&#xc2;" horiz-adv-x="1323" d="M49 0l479 1311h205l477 -1311h-233l-111 303h-491l-111 -303h-215zM332 1434l295 239l295 -239l-48 -82l-247 92l-248 -92zM426 444h389l-194 535z" />
<glyph unicode="&#xc3;" horiz-adv-x="1323" d="M49 0l479 1311h205l477 -1311h-233l-111 303h-491l-111 -303h-215zM291 1421q50 138 91 191t87 53q48 0 98.5 -19.5t85.5 -43t75.5 -43t72.5 -19.5q4 0 7.5 1t7.5 4t7 5.5t7 9t7 11t8.5 14.5t9 17t10.5 20t12 23l133 -52q-50 -137 -91.5 -189t-87.5 -52q-48 0 -98.5 19.5 t-85 43t-75 43t-72.5 19.5q-4 0 -7.5 -1t-7.5 -4t-7 -5.5t-7 -9t-7 -11t-8.5 -14.5t-9 -17t-10.5 -20t-12 -23zM426 444h389l-194 535z" />
<glyph unicode="&#xc4;" horiz-adv-x="1323" d="M49 0l479 1311h205l477 -1311h-233l-111 303h-491l-111 -303h-215zM319 1530q0 50 35.5 85.5t85.5 35.5t85.5 -35.5t35.5 -85.5t-35.5 -85.5t-85.5 -35.5t-85.5 35.5t-35.5 85.5zM426 444h389l-194 535zM713 1530q0 50 35.5 85.5t85.5 35.5q49 0 84.5 -35.5t35.5 -85.5 t-35.5 -85.5t-84.5 -35.5q-50 0 -85.5 35.5t-35.5 85.5z" />
<glyph unicode="&#xc5;" horiz-adv-x="1257" d="M49 0l466 1274q-73 58 -73 147q0 77 56 133t133 56q76 0 132 -56t56 -133q0 -90 -72 -147l463 -1274h-233l-111 303h-491l-111 -303h-215zM426 444h389l-194 535zM545 1421q0 -35 25.5 -60.5t60.5 -25.5t60.5 25.5t25.5 60.5t-25.5 60.5t-60.5 25.5t-60.5 -25.5 t-25.5 -60.5z" />
<glyph unicode="&#xc6;" horiz-adv-x="1601" d="M49 0l479 1311h949v-176h-525v-367h357v-174h-357v-420h586v-174h-805v303h-358l-111 -303h-215zM426 444h307v691h-57z" />
<glyph unicode="&#xc7;" horiz-adv-x="1036" d="M66 414v458q0 142 66 245.5t177 154.5t252 51q301 0 393 -215l-145 -88q-28 41 -50 64.5t-66.5 44t-102.5 20.5q-135 0 -220 -71.5t-85 -176.5v-452q0 -128 70.5 -207.5t199.5 -79.5q45 0 82.5 4.5t66.5 15.5t49 19.5t38 25t25.5 23.5t21 24.5t14.5 18.5l121 -105 q-36 -57 -121 -113t-202 -77l-105 -107q80 -12 126 -49t46 -92q0 -71 -56 -115.5t-165 -44.5q-111 0 -193 78l25 49q40 -29 69.5 -40t67.5 -11q36 0 60 25.5t24 62.5q0 39 -62.5 65.5t-140.5 33.5l115 138q-178 19 -286.5 130t-108.5 293z" />
<glyph unicode="&#xc8;" horiz-adv-x="950" d="M82 0v1311h743v-176h-524v-367h356v-174h-356v-420h586v-174h-805zM203 1485l108 188l295 -239l-47 -82z" />
<glyph unicode="&#xc9;" horiz-adv-x="950" d="M82 0v1311h743v-176h-524v-367h356v-174h-356v-420h586v-174h-805zM369 1434l295 239l108 -188l-356 -133z" />
<glyph unicode="&#xca;" horiz-adv-x="950" d="M82 0v1311h743v-176h-524v-367h356v-174h-356v-420h586v-174h-805zM168 1434l295 239l295 -239l-47 -82l-248 92l-248 -92z" />
<glyph unicode="&#xcb;" horiz-adv-x="950" d="M82 0v1311h743v-176h-524v-367h356v-174h-356v-420h586v-174h-805zM156 1530q0 50 35.5 85.5t84.5 35.5q50 0 85.5 -35.5t35.5 -85.5t-35.5 -85.5t-85.5 -35.5q-49 0 -84.5 35.5t-35.5 85.5zM549 1530q0 50 35.5 85.5t85.5 35.5t85.5 -35.5t35.5 -85.5t-35.5 -85.5 t-85.5 -35.5t-85.5 35.5t-35.5 85.5z" />
<glyph unicode="&#xcc;" horiz-adv-x="540" d="M49 1485l109 188l295 -239l-47 -82zM70 0v141h92v1028h-92v142h403v-142h-92v-1028h92v-141h-403z" />
<glyph unicode="&#xcd;" horiz-adv-x="540" d="M70 0v141h92v1028h-92v142h403v-142h-92v-1028h92v-141h-403zM92 1434l295 239l109 -188l-357 -133z" />
<glyph unicode="&#xce;" horiz-adv-x="655" d="M37 1434l295 239l295 -239l-47 -82l-248 92l-248 -92zM127 0v141h92v1028h-92v142h403v-142h-92v-1028h92v-141h-403z" />
<glyph unicode="&#xcf;" horiz-adv-x="679" d="M25 1530q0 50 35.5 85.5t84.5 35.5t85 -35.5t36 -85.5t-36 -85.5t-85 -35.5t-84.5 35.5t-35.5 85.5zM137 0v141h92v1028h-92v142h404v-142h-92v-1028h92v-141h-404zM418 1530q0 50 36 85.5t85 35.5t84.5 -35.5t35.5 -85.5t-35.5 -85.5t-84.5 -35.5t-85 35.5t-36 85.5z " />
<glyph unicode="&#xd0;" horiz-adv-x="1148" d="M55 578v188h107v545h436q227 0 354 -119.5t127 -323.5v-422q0 -214 -119.5 -330t-334.5 -116h-463v578h-107zM381 174h213q266 0 266 289v397q0 137 -76.5 207t-218.5 70h-184v-371h215v-188h-215v-404z" />
<glyph unicode="&#xd1;" horiz-adv-x="1110" d="M82 0v1311h221l506 -916v916h219v-1311h-221l-506 915v-915h-219zM199 1421q50 138 91 191t87 53q48 0 98.5 -19.5t85.5 -43t75.5 -43t72.5 -19.5q4 0 7.5 1t7.5 4t7 6t7 8.5t7 11t8 14.5t8.5 16.5t10.5 20.5t12 23l134 -52q-50 -137 -91.5 -189t-87.5 -52 q-48 0 -98.5 19.5t-85 43t-75 43t-72.5 19.5q-4 0 -7.5 -1t-7.5 -4t-7 -5.5t-7 -9t-7 -11t-8.5 -14.5t-9 -17t-10.5 -20t-12 -23z" />
<glyph unicode="&#xd2;" horiz-adv-x="1097" d="M68 365v548q0 192 134 303t345 111q69 0 135.5 -13.5t129.5 -43.5t110 -73t75.5 -108t28.5 -143v-549q0 -192 -134 -302.5t-345 -110.5q-69 0 -135.5 13.5t-129.5 43.5t-110 73t-75.5 108t-28.5 143zM238 1485l108 188l295 -239l-47 -82zM287 438q0 -148 65 -214t195 -66 q147 0 203.5 74t56.5 231v409q0 148 -65 214.5t-195 66.5q-147 0 -203.5 -74t-56.5 -231v-410z" />
<glyph unicode="&#xd3;" horiz-adv-x="1097" d="M68 365v548q0 192 134 303t345 111q69 0 135.5 -13.5t129.5 -43.5t110 -73t75.5 -108t28.5 -143v-549q0 -192 -134 -302.5t-345 -110.5q-69 0 -135.5 13.5t-129.5 43.5t-110 73t-75.5 108t-28.5 143zM287 438q0 -148 65 -214t195 -66q147 0 203.5 74t56.5 231v409 q0 148 -65 214.5t-195 66.5q-147 0 -203.5 -74t-56.5 -231v-410zM442 1434l295 239l109 -188l-357 -133z" />
<glyph unicode="&#xd4;" horiz-adv-x="1097" d="M68 365v548q0 192 134 303t345 111q69 0 135.5 -13.5t129.5 -43.5t110 -73t75.5 -108t28.5 -143v-549q0 -192 -134 -302.5t-345 -110.5q-69 0 -135.5 13.5t-129.5 43.5t-110 73t-75.5 108t-28.5 143zM254 1434l295 239l295 -239l-47 -82l-248 92l-248 -92zM287 438 q0 -148 65 -214t195 -66q147 0 203.5 74t56.5 231v409q0 148 -65 214.5t-195 66.5q-147 0 -203.5 -74t-56.5 -231v-410z" />
<glyph unicode="&#xd5;" horiz-adv-x="1097" d="M68 365v548q0 192 134 303t345 111q69 0 135.5 -13.5t129.5 -43.5t110 -73t75.5 -108t28.5 -143v-549q0 -192 -134 -302.5t-345 -110.5q-69 0 -135.5 13.5t-129.5 43.5t-110 73t-75.5 108t-28.5 143zM193 1421q50 138 91 191t87 53q48 0 98.5 -19.5t85 -43t75 -43 t72.5 -19.5q4 0 7.5 1t7.5 4t7 5.5t7 9t7 11t8.5 14.5t9 17t10.5 20t12 23l133 -52q-50 -137 -91 -189t-87 -52q-48 0 -98.5 19.5t-85.5 43t-75.5 43t-72.5 19.5q-4 0 -7.5 -1t-7.5 -4t-7 -6t-7 -8.5t-7 -11t-8 -14.5t-8.5 -16.5t-10.5 -20.5t-12 -23zM287 438 q0 -148 65 -214t195 -66q147 0 203.5 74t56.5 231v409q0 148 -65 214.5t-195 66.5q-147 0 -203.5 -74t-56.5 -231v-410z" />
<glyph unicode="&#xd6;" horiz-adv-x="1097" d="M68 365v548q0 192 134 303t345 111q69 0 135.5 -13.5t129.5 -43.5t110 -73t75.5 -108t28.5 -143v-549q0 -192 -134 -302.5t-345 -110.5q-69 0 -135.5 13.5t-129.5 43.5t-110 73t-75.5 108t-28.5 143zM231 1530q0 50 35.5 85.5t85.5 35.5t85.5 -35.5t35.5 -85.5 t-35.5 -85.5t-85.5 -35.5t-85.5 35.5t-35.5 85.5zM287 438q0 -148 65 -214t195 -66q147 0 203.5 74t56.5 231v409q0 148 -65 214.5t-195 66.5q-147 0 -203.5 -74t-56.5 -231v-410zM625 1530q0 50 35.5 85.5t84.5 35.5t85 -35.5t36 -85.5t-36 -85.5t-85 -35.5t-84.5 35.5 t-35.5 85.5z" />
<glyph unicode="&#xd7;" horiz-adv-x="882" d="M57 332l248 248l-248 247l133 134l248 -248l248 248l133 -134l-248 -247l248 -248l-133 -133l-248 247l-248 -247z" />
<glyph unicode="&#xd8;" horiz-adv-x="1097" d="M68 365v548q0 192 134 303t345 111q95 0 182 -25l29 70l121 -49l-29 -72q176 -104 176 -305v-549q0 -192 -134 -302.5t-345 -110.5q-104 0 -197 29l-31 -74l-122 49l32 81q-161 103 -161 296zM287 438q0 -98 28 -158l347 856q-51 17 -115 17q-147 0 -203.5 -74 t-56.5 -231v-410zM417 180q53 -22 130 -22q147 0 203.5 74t56.5 231v409q0 114 -38 179z" />
<glyph unicode="&#xd9;" horiz-adv-x="1105" d="M72 442v869h219v-795q0 -358 260 -358q65 0 112.5 21.5t75.5 56t44.5 86.5t22 103t5.5 116v770h219v-836q0 -132 -57.5 -243t-168.5 -179.5t-253 -68.5q-204 0 -341.5 129t-137.5 329zM238 1485l108 188l295 -239l-47 -82z" />
<glyph unicode="&#xda;" horiz-adv-x="1105" d="M72 442v869h219v-795q0 -358 260 -358q65 0 112.5 21.5t75.5 56t44.5 86.5t22 103t5.5 116v770h219v-836q0 -132 -57.5 -243t-168.5 -179.5t-253 -68.5q-204 0 -341.5 129t-137.5 329zM442 1434l295 239l109 -188l-357 -133z" />
<glyph unicode="&#xdb;" horiz-adv-x="1105" d="M72 442v869h219v-795q0 -358 260 -358q65 0 112.5 21.5t75.5 56t44.5 86.5t22 103t5.5 116v770h219v-836q0 -132 -57.5 -243t-168.5 -179.5t-253 -68.5q-204 0 -341.5 129t-137.5 329zM254 1434l295 239l295 -239l-47 -82l-248 92l-248 -92z" />
<glyph unicode="&#xdc;" horiz-adv-x="1105" d="M72 442v869h219v-795q0 -358 260 -358q65 0 112.5 21.5t75.5 56t44.5 86.5t22 103t5.5 116v770h219v-836q0 -132 -57.5 -243t-168.5 -179.5t-253 -68.5q-204 0 -341.5 129t-137.5 329zM231 1530q0 50 35.5 85.5t85.5 35.5t85.5 -35.5t35.5 -85.5t-35.5 -85.5t-85.5 -35.5 t-85.5 35.5t-35.5 85.5zM625 1530q0 50 35.5 85.5t84.5 35.5t85 -35.5t36 -85.5t-36 -85.5t-85 -35.5t-84.5 35.5t-35.5 85.5z" />
<glyph unicode="&#xdd;" horiz-adv-x="1077" d="M33 1311h252l266 -477l264 477h227l-391 -707v-604h-219v592zM483 1434l295 239l109 -188l-357 -133z" />
<glyph unicode="&#xde;" d="M82 0v1311h219v-271h225q78 0 152 -23.5t136 -69t100 -122t38 -172.5q0 -75 -42.5 -146.5t-108 -122t-146 -81.5t-155.5 -31h-199v-272h-219zM301 449h166q112 0 189 62.5t77 150.5q0 204 -237 204h-195v-417z" />
<glyph unicode="&#xdf;" horiz-adv-x="976" d="M78 0v987q0 80 24.5 141.5t62.5 97.5t90.5 58.5t100 30.5t99.5 8q57 0 113 -17.5t106.5 -52t82 -95.5t31.5 -138q0 -143 -110 -242q122 -50 178.5 -144.5t56.5 -215.5q0 -208 -79.5 -321t-204.5 -113q-60 0 -111 8.5t-81.5 20.5t-53 24t-31.5 21l-8 8l88 153 q66 -39 162 -39q51 0 87 51t36 156q0 256 -326 256v182q79 0 148 59.5t69 153.5q0 60 -49 92.5t-121 32.5q-19 0 -39 -7.5t-45 -27.5t-41 -67t-16 -115v-946h-219z" />
<glyph unicode="&#xe0;" horiz-adv-x="1069" d="M61 356q0 138 96 229t265 91q126 0 221 -64v19q0 94 -40 154.5t-124 60.5h-325v174h366q58 0 117 -21t110 -60t83 -101.5t32 -137.5v-499q0 -30 13.5 -50.5t36 -29.5t40.5 -12t37 -3h19l12 -77q-4 -2 -15.5 -8t-17 -8.5t-17 -7t-20 -7t-20.5 -5.5t-25 -4t-28 -1 q-178 0 -220 112q-98 -106 -237 -106q-104 0 -176 26t-111 76.5t-55.5 113t-16.5 146.5zM176 1395l139 166l295 -312l-82 -96zM281 340q0 -172 157 -172q52 0 93 13t63 33.5t33 37t16 31.5v163q-50 56 -184 56q-178 0 -178 -162z" />
<glyph unicode="&#xe1;" horiz-adv-x="1069" d="M61 356q0 138 96 229t265 91q126 0 221 -64v19q0 94 -40 154.5t-124 60.5h-325v174h366q58 0 117 -21t110 -60t83 -101.5t32 -137.5v-499q0 -30 13.5 -50.5t36 -29.5t40.5 -12t37 -3h19l12 -77q-4 -2 -15.5 -8t-17 -8.5t-17 -7t-20 -7t-20.5 -5.5t-25 -4t-28 -1 q-178 0 -220 112q-98 -106 -237 -106q-104 0 -176 26t-111 76.5t-55.5 113t-16.5 146.5zM281 340q0 -172 157 -172q52 0 93 13t63 33.5t33 37t16 31.5v163q-50 56 -184 56q-178 0 -178 -162zM293 1249l295 312l139 -166l-352 -242z" />
<glyph unicode="&#xe2;" horiz-adv-x="1069" d="M61 356q0 138 96 229t265 91q126 0 221 -64v19q0 94 -40 154.5t-124 60.5h-325v174h366q58 0 117 -21t110 -60t83 -101.5t32 -137.5v-499q0 -30 13.5 -50.5t36 -29.5t40.5 -12t37 -3h19l12 -77q-4 -2 -15.5 -8t-17 -8.5t-17 -7t-20 -7t-20.5 -5.5t-25 -4t-28 -1 q-178 0 -220 112q-98 -106 -237 -106q-104 0 -176 26t-111 76.5t-55.5 113t-16.5 146.5zM170 1235l295 240l295 -240l-47 -82l-248 92l-248 -92zM281 340q0 -172 157 -172q52 0 93 13t63 33.5t33 37t16 31.5v163q-50 56 -184 56q-178 0 -178 -162z" />
<glyph unicode="&#xe3;" horiz-adv-x="1073" d="M66 356q0 138 95.5 229t264.5 91q126 0 221 -64v19q0 94 -40 154.5t-124 60.5h-325v174h366q58 0 117 -21t110 -60t83 -101.5t32 -137.5v-499q0 -30 13.5 -50.5t36 -29.5t40.5 -12t37 -3h19l12 -77q-4 -2 -15.5 -8t-17 -8.5t-17 -7t-20 -7t-20.5 -5.5t-25 -4t-28 -1 q-177 0 -219 112q-98 -106 -238 -106q-104 0 -175.5 26t-110.5 76.5t-55.5 113t-16.5 146.5zM109 1223q50 138 91 190.5t87 52.5q48 0 98.5 -19.5t85 -43t75 -43t72.5 -19.5q4 0 7.5 1t7.5 4t7 5.5t7 9t7 11t8.5 14.5t9 17t10.5 20t12 23l133 -51q-50 -137 -91 -189.5 t-87 -52.5q-48 0 -98.5 19.5t-85.5 43t-75.5 43t-72.5 19.5q-4 0 -7.5 -1t-7.5 -4t-7 -5.5t-7 -8.5t-7 -11t-8 -14.5t-8.5 -16.5t-10.5 -20t-12 -23zM285 340q0 -172 157 -172q52 0 93 13t63 33.5t33 37t16 31.5v163q-50 56 -184 56q-178 0 -178 -162z" />
<glyph unicode="&#xe4;" horiz-adv-x="1069" d="M61 356q0 138 96 229t265 91q126 0 221 -64v19q0 94 -40 154.5t-124 60.5h-325v174h366q58 0 117 -21t110 -60t83 -101.5t32 -137.5v-499q0 -30 13.5 -50.5t36 -29.5t40.5 -12t37 -3h19l12 -77q-4 -2 -15.5 -8t-17 -8.5t-17 -7t-20 -7t-20.5 -5.5t-25 -4t-28 -1 q-178 0 -220 112q-98 -106 -237 -106q-104 0 -176 26t-111 76.5t-55.5 113t-16.5 146.5zM152 1274q0 50 35.5 85.5t84.5 35.5q50 0 85.5 -35.5t35.5 -85.5t-35.5 -85.5t-85.5 -35.5q-49 0 -84.5 35.5t-35.5 85.5zM281 340q0 -172 157 -172q52 0 93 13t63 33.5t33 37t16 31.5 v163q-50 56 -184 56q-178 0 -178 -162zM545 1274q0 50 35.5 85.5t85.5 35.5q49 0 84.5 -35.5t35.5 -85.5t-35.5 -85.5t-84.5 -35.5q-50 0 -85.5 35.5t-35.5 85.5z" />
<glyph unicode="&#xe5;" horiz-adv-x="1069" d="M61 356q0 138 96 229t265 91q126 0 221 -64v19q0 94 -40 154.5t-124 60.5h-325v174h231q-46 24 -75 69.5t-29 98.5q0 76 55.5 132t132.5 56t132.5 -56t55.5 -132q0 -54 -29.5 -100t-77.5 -70q56 -5 110 -28.5t100 -62t74 -98t28 -129.5v-499q0 -30 13.5 -50.5t36 -29.5 t40.5 -12t37 -3h19l12 -77q-4 -2 -15.5 -8t-17 -8.5t-17 -7t-20 -7t-20.5 -5.5t-25 -4t-28 -1q-178 0 -220 112q-98 -106 -237 -106q-104 0 -176 26t-111 76.5t-55.5 113t-16.5 146.5zM281 340q0 -172 157 -172q52 0 93 13t63 33.5t33 37t16 31.5v163q-50 56 -184 56 q-178 0 -178 -162zM383 1188q0 -35 25.5 -60.5t60.5 -25.5t60.5 25.5t25.5 60.5t-25.5 60.5t-60.5 25.5t-60.5 -25.5t-25.5 -60.5z" />
<glyph unicode="&#xe6;" horiz-adv-x="1576" d="M61 356q0 138 96 229t265 91q126 0 221 -64v19q0 94 -40 154.5t-124 60.5h-327v174h368q68 0 138.5 -29.5t121.5 -83.5q125 125 305 125q420 0 420 -524l-643 -43q6 -154 67 -228.5t195 -74.5q108 0 188.5 40t117.5 83l79 -101q-50 -68 -81 -96q-114 -100 -324 -100 q-258 0 -373 174q-20 -27 -46 -52.5t-65 -53.5t-91.5 -45t-110.5 -17q-105 0 -177 26t-110.5 77t-54 112.5t-15.5 146.5zM279 340q0 -77 37.5 -124.5t121.5 -47.5q47 0 85 11.5t59.5 27t36 34.5t19 31t5.5 19v155q-50 56 -184 56q-180 0 -180 -162zM868 614l418 27 q0 100 -55 158.5t-146 58.5q-184 0 -217 -244z" />
<glyph unicode="&#xe7;" horiz-adv-x="946" d="M61 414v172q0 218 112 334t321 116q142 0 227 -58t133 -171l-106 -70q-40 59 -91 92t-135 33q-241 0 -241 -248v-165q0 -136 52.5 -211.5t176.5 -75.5q45 0 82 4t65.5 14t47 16.5t36.5 22.5t24.5 21.5t20.5 23.5l13 17l88 -93q-105 -164 -311 -194l-101 -103 q80 -12 126 -49t46 -92q0 -71 -56 -115.5t-165 -44.5q-111 0 -193 78l25 49q40 -29 69.5 -40t67.5 -11q36 0 60 25.5t24 62.5q0 39 -62.5 65.5t-140.5 33.5l117 141q-159 24 -245.5 132.5t-86.5 287.5z" />
<glyph unicode="&#xe8;" horiz-adv-x="989" d="M55 522q0 102 25 187t67.5 144t99.5 100t120 60t131 19q420 0 420 -524l-644 -43q6 -154 67.5 -228.5t195.5 -74.5q108 0 188 40t117 83l80 -101q-50 -68 -84 -97q-113 -99 -322 -99q-228 0 -344.5 137t-116.5 397zM223 1395l139 166l295 -312l-82 -96zM281 614l417 27 q0 101 -54.5 159t-145.5 58q-184 0 -217 -244z" />
<glyph unicode="&#xe9;" horiz-adv-x="989" d="M55 522q0 102 25 187t67.5 144t99.5 100t120 60t131 19q420 0 420 -524l-644 -43q6 -154 67.5 -228.5t195.5 -74.5q108 0 188 40t117 83l80 -101q-50 -68 -84 -97q-113 -99 -322 -99q-228 0 -344.5 137t-116.5 397zM281 614l417 27q0 101 -54.5 159t-145.5 58 q-184 0 -217 -244zM317 1249l295 312l140 -166l-353 -242z" />
<glyph unicode="&#xea;" horiz-adv-x="989" d="M55 522q0 102 25 187t67.5 144t99.5 100t120 60t131 19q420 0 420 -524l-644 -43q6 -154 67.5 -228.5t195.5 -74.5q108 0 188 40t117 83l80 -101q-50 -68 -84 -97q-113 -99 -322 -99q-228 0 -344.5 137t-116.5 397zM205 1235l295 240l295 -240l-47 -82l-248 92l-248 -92z M281 614l417 27q0 101 -54.5 159t-145.5 58q-184 0 -217 -244z" />
<glyph unicode="&#xeb;" horiz-adv-x="989" d="M55 522q0 102 25 187t67.5 144t99.5 100t120 60t131 19q420 0 420 -524l-644 -43q6 -154 67.5 -228.5t195.5 -74.5q108 0 188 40t117 83l80 -101q-50 -68 -84 -97q-113 -99 -322 -99q-228 0 -344.5 137t-116.5 397zM184 1274q0 50 36 85.5t85 35.5t85 -35.5t36 -85.5 t-36 -85.5t-85 -35.5t-85 35.5t-36 85.5zM281 614l417 27q0 101 -54.5 159t-145.5 58q-184 0 -217 -244zM578 1274q0 50 35.5 85.5t84.5 35.5q50 0 85.5 -35.5t35.5 -85.5t-35.5 -85.5t-85.5 -35.5q-49 0 -84.5 35.5t-35.5 85.5z" />
<glyph unicode="&#xec;" horiz-adv-x="540" d="M23 1395l139 166l295 -312l-82 -96zM242 0v987l219 70v-1057h-219z" />
<glyph unicode="&#xed;" horiz-adv-x="540" d="M80 0v987l219 70v-1057h-219zM80 1249l295 312l139 -166l-352 -242z" />
<glyph unicode="&#xee;" horiz-adv-x="663" d="M37 1235l295 240l295 -240l-47 -82l-248 92l-248 -92zM221 0v987l219 70v-1057h-219z" />
<glyph unicode="&#xef;" horiz-adv-x="706" d="M35 1274q0 50 35.5 85.5t85.5 35.5q49 0 84.5 -35.5t35.5 -85.5t-35.5 -85.5t-84.5 -35.5q-50 0 -85.5 35.5t-35.5 85.5zM244 0v987l219 70v-1057h-219zM428 1274q0 50 36 85.5t85 35.5t85 -35.5t36 -85.5t-36 -85.5t-85 -35.5t-85 35.5t-36 85.5z" />
<glyph unicode="&#xf0;" horiz-adv-x="993" d="M55 473q0 114 57 221t159.5 175.5t222.5 68.5q70 0 129 -18q-47 73 -119 155l-160 -110l-78 112l140 97q-62 56 -107 79l94 150q88 -45 172 -117l150 105l80 -113l-129 -90q121 -137 193.5 -320.5t72.5 -396.5q0 -90 -30 -176.5t-84 -156t-138.5 -112t-185.5 -42.5 q-203 0 -321 136.5t-118 352.5zM274 469q0 -139 58 -225t162 -86q88 0 153.5 97t65.5 220q0 69 -22 132.5t-73.5 110t-123.5 46.5q-57 0 -109 -48.5t-81.5 -116.5t-29.5 -130z" />
<glyph unicode="&#xf1;" d="M76 0v950l219 70v-115q104 115 280 115h82q138 0 209.5 -67.5t71.5 -223.5v-729h-219v713q0 133 -152 133h-69q-72 0 -128.5 -56t-74.5 -139v-651h-219zM176 1223q50 138 91 190.5t87 52.5q48 0 98.5 -19.5t85.5 -43t75.5 -43t72.5 -19.5q4 0 7.5 1t7.5 4t7 5.5t7 9t7 11 t8.5 14.5t9 17t10.5 20t12 23l133 -51q-50 -137 -91 -189.5t-87 -52.5q-48 0 -98.5 19.5t-85.5 43t-75.5 43t-72.5 19.5q-15 0 -26 -14.5t-36 -63.5q-9 -17 -14 -26z" />
<glyph unicode="&#xf2;" horiz-adv-x="1003" d="M63 319v349q0 159 102.5 255.5t268.5 96.5h160q58 0 117 -21t110 -60t83 -101.5t32 -137.5v-348q0 -159 -102.5 -255.5t-268.5 -96.5h-159q-58 0 -117 21t-110.5 59.5t-83.5 101t-32 137.5zM176 1395l139 166l295 -312l-82 -96zM272 653q0 -49 3.5 -104t10 -123t9.5 -104 q11 -154 180 -154q132 0 192 47t60 143q0 52 -3.5 107t-10 127.5t-8.5 105.5q-11 148 -193 148q-115 0 -177.5 -47.5t-62.5 -145.5z" />
<glyph unicode="&#xf3;" horiz-adv-x="1003" d="M63 319v349q0 159 102.5 255.5t268.5 96.5h160q58 0 117 -21t110 -60t83 -101.5t32 -137.5v-348q0 -159 -102.5 -255.5t-268.5 -96.5h-159q-58 0 -117 21t-110.5 59.5t-83.5 101t-32 137.5zM272 653q0 -49 3.5 -104t10 -123t9.5 -104q11 -154 180 -154q132 0 192 47 t60 143q0 52 -3.5 107t-10 127.5t-8.5 105.5q-11 148 -193 148q-115 0 -177.5 -47.5t-62.5 -145.5zM410 1249l295 312l139 -166l-352 -242z" />
<glyph unicode="&#xf4;" horiz-adv-x="1003" d="M63 319v349q0 159 102.5 255.5t268.5 96.5h160q58 0 117 -21t110 -60t83 -101.5t32 -137.5v-348q0 -159 -102.5 -255.5t-268.5 -96.5h-159q-58 0 -117 21t-110.5 59.5t-83.5 101t-32 137.5zM211 1235l295 240l295 -240l-47 -82l-248 92l-248 -92zM272 653q0 -49 3.5 -104 t10 -123t9.5 -104q11 -154 180 -154q132 0 192 47t60 143q0 52 -3.5 107t-10 127.5t-8.5 105.5q-11 148 -193 148q-115 0 -177.5 -47.5t-62.5 -145.5z" />
<glyph unicode="&#xf5;" horiz-adv-x="1003" d="M63 319v349q0 159 102.5 255.5t268.5 96.5h160q58 0 117 -21t110 -60t83 -101.5t32 -137.5v-348q0 -159 -102.5 -255.5t-268.5 -96.5h-159q-58 0 -117 21t-110.5 59.5t-83.5 101t-32 137.5zM166 1223q50 138 91 190.5t87 52.5q48 0 98.5 -19.5t85.5 -43t75.5 -43 t72.5 -19.5q4 0 7.5 1t7.5 4t7 5.5t7 9t7 11t8.5 14.5t9 17t10.5 20t12 23l133 -51q-50 -137 -91 -189.5t-87 -52.5q-48 0 -98.5 19.5t-85.5 43t-75.5 43t-72.5 19.5q-15 0 -26 -14.5t-36 -63.5q-9 -17 -14 -26zM272 653q0 -49 3.5 -104t10 -123t9.5 -104q11 -154 180 -154 q132 0 192 47t60 143q0 52 -3.5 107t-10 127.5t-8.5 105.5q-11 148 -193 148q-115 0 -177.5 -47.5t-62.5 -145.5z" />
<glyph unicode="&#xf6;" horiz-adv-x="1003" d="M63 319v349q0 159 102.5 255.5t268.5 96.5h160q58 0 117 -21t110 -60t83 -101.5t32 -137.5v-348q0 -159 -102.5 -255.5t-268.5 -96.5h-159q-58 0 -117 21t-110.5 59.5t-83.5 101t-32 137.5zM195 1274q0 50 35.5 85.5t84.5 35.5t85 -35.5t36 -85.5t-36 -85.5t-85 -35.5 t-84.5 35.5t-35.5 85.5zM272 653q0 -49 3.5 -104t10 -123t9.5 -104q11 -154 180 -154q132 0 192 47t60 143q0 52 -3.5 107t-10 127.5t-8.5 105.5q-11 148 -193 148q-115 0 -177.5 -47.5t-62.5 -145.5zM588 1274q0 50 36 85.5t85 35.5t84.5 -35.5t35.5 -85.5t-35.5 -85.5 t-84.5 -35.5t-85 35.5t-36 85.5z" />
<glyph unicode="&#xf7;" horiz-adv-x="903" d="M53 485v189h789v-189h-789zM313 272q0 56 40.5 96t95.5 40t95 -40t40 -96t-40 -95.5t-95 -39.5q-56 0 -96 40t-40 95zM313 887q0 55 40 95t96 40q55 0 95 -40t40 -95t-40 -95t-95 -40q-56 0 -96 40t-40 95z" />
<glyph unicode="&#xf8;" horiz-adv-x="1003" d="M63 319v349q0 159 102.5 255.5t268.5 96.5h160q11 0 35 -2l43 104l129 -51l-38 -94q77 -40 125 -111.5t48 -165.5v-348q0 -159 -102.5 -255.5t-268.5 -96.5h-159q-12 0 -38 2l-42 -104l-129 51l38 95q-77 40 -124.5 110.5t-47.5 164.5zM272 653q0 -49 3.5 -104t10 -123 t9.5 -104q3 -44 21 -79l243 600q-23 3 -47 3q-115 0 -177.5 -47.5t-62.5 -145.5zM436 170q24 -2 39 -2q132 0 192 47t60 143q0 52 -3.5 107t-10 127.5t-8.5 105.5q-3 46 -24 78z" />
<glyph unicode="&#xf9;" d="M72 291v729h219v-713q0 -133 151 -133h70q72 0 128.5 56t74.5 139v651h219v-1020h-219v115q-104 -115 -281 -115h-82q-137 0 -208.5 67.5t-71.5 223.5zM176 1395l139 166l295 -312l-82 -96z" />
<glyph unicode="&#xfa;" d="M72 291v729h219v-713q0 -133 151 -133h70q72 0 128.5 56t74.5 139v651h219v-1020h-219v115q-104 -115 -281 -115h-82q-137 0 -208.5 67.5t-71.5 223.5zM410 1249l295 312l139 -166l-352 -242z" />
<glyph unicode="&#xfb;" d="M72 291v729h219v-713q0 -133 151 -133h70q72 0 128.5 56t74.5 139v651h219v-1020h-219v115q-104 -115 -281 -115h-82q-137 0 -208.5 67.5t-71.5 223.5zM211 1235l295 240l295 -240l-47 -82l-248 92l-248 -92z" />
<glyph unicode="&#xfc;" d="M72 291v729h219v-713q0 -133 151 -133h70q72 0 128.5 56t74.5 139v651h219v-1020h-219v115q-104 -115 -281 -115h-82q-137 0 -208.5 67.5t-71.5 223.5zM195 1274q0 50 35.5 85.5t84.5 35.5t85 -35.5t36 -85.5t-36 -85.5t-85 -35.5t-84.5 35.5t-35.5 85.5zM588 1274 q0 50 36 85.5t85 35.5t84.5 -35.5t35.5 -85.5t-35.5 -85.5t-84.5 -35.5t-85 35.5t-36 85.5z" />
<glyph unicode="&#xfd;" horiz-adv-x="1083" d="M45 1020h217l273 -750l272 750h225l-375 -1034q-74 -204 -199 -300t-311 -96v179q103 0 166.5 50t110.5 154zM410 1249l295 312l139 -166l-352 -242z" />
<glyph unicode="&#xfe;" horiz-adv-x="1009" d="M82 -258v1532l219 69v-430q117 117 252 117q80 0 149.5 -25.5t124 -74t86 -126.5t31.5 -175v-236q0 -103 -32 -183.5t-85 -127.5t-116 -70.5t-131 -23.5q-175 0 -279 104v-350h-219zM301 279q17 -27 30.5 -42.5t41.5 -35.5t71.5 -29.5t104.5 -9.5q82 0 129 67t47 181v211 q0 65 -20 113.5t-53 73.5t-66 36.5t-66 11.5q-30 0 -54.5 -3t-42 -7t-33 -13.5t-24.5 -16.5t-19.5 -21.5t-15 -23t-15 -28t-15.5 -28.5v-436z" />
<glyph unicode="&#xff;" horiz-adv-x="1083" d="M45 1020h217l273 -750l272 750h225l-375 -1034q-74 -204 -199 -300t-311 -96v179q103 0 166.5 50t110.5 154zM252 1274q0 50 36 85.5t85 35.5t85 -35.5t36 -85.5t-36 -85.5t-85 -35.5t-85 35.5t-36 85.5zM645 1274q0 50 35.5 85.5t85.5 35.5t85.5 -35.5t35.5 -85.5 t-35.5 -85.5t-85.5 -35.5t-85.5 35.5t-35.5 85.5z" />
<glyph unicode="&#x152;" horiz-adv-x="1550" d="M68 365v548q0 192 134 303t345 111q71 0 149 -16h729v-176h-524v-367h356v-174h-356v-420h586v-174h-789q-75 -16 -151 -16q-69 0 -135.5 13.5t-129.5 43.5t-110 73t-75.5 108t-28.5 143zM287 438q0 -148 65 -214t195 -66q80 0 135 22v948q-58 25 -135 25 q-147 0 -203.5 -74t-56.5 -231v-410z" />
<glyph unicode="&#x153;" horiz-adv-x="1486" d="M63 319v349q0 159 102.5 255.5t268.5 96.5h78q66 0 132.5 -25.5t117.5 -74.5q103 112 274 112q95 0 164.5 -27.5t110 -72t64.5 -115t32 -142t8 -167.5l-561 -43q12 -303 221 -303q91 0 158 38.5t106 84.5l80 -101q-37 -65 -53 -84q-91 -112 -311 -112q-192 0 -297 114 q-102 -102 -275 -102h-77q-58 0 -117 21t-110.5 59.5t-83.5 101t-32 137.5zM272 653q0 -50 3 -99t10 -121t10 -111q6 -79 44.5 -116.5t94.5 -37.5q113 0 162 47t49 143q0 52 -3 101t-9.5 126.5t-9.5 112.5q-11 148 -152 148q-199 0 -199 -193zM860 614l336 27q0 103 -41 160 t-119 57q-151 0 -176 -244z" />
<glyph unicode="&#x178;" horiz-adv-x="1077" d="M33 1311h252l266 -477l264 477h227l-391 -707v-604h-219v592zM238 1530q0 50 35.5 85.5t84.5 35.5q50 0 85.5 -35.5t35.5 -85.5t-35.5 -85.5t-85.5 -35.5q-49 0 -84.5 35.5t-35.5 85.5zM631 1530q0 50 35.5 85.5t85.5 35.5q49 0 84.5 -35.5t35.5 -85.5t-35.5 -85.5 t-84.5 -35.5q-50 0 -85.5 35.5t-35.5 85.5z" />
<glyph unicode="&#x2000;" horiz-adv-x="836" />
<glyph unicode="&#x2001;" horiz-adv-x="1673" />
<glyph unicode="&#x2002;" horiz-adv-x="836" />
<glyph unicode="&#x2003;" horiz-adv-x="1673" />
<glyph unicode="&#x2004;" horiz-adv-x="557" />
<glyph unicode="&#x2005;" horiz-adv-x="418" />
<glyph unicode="&#x2006;" horiz-adv-x="278" />
<glyph unicode="&#x2007;" horiz-adv-x="278" />
<glyph unicode="&#x2008;" horiz-adv-x="209" />
<glyph unicode="&#x2009;" horiz-adv-x="334" />
<glyph unicode="&#x200a;" horiz-adv-x="92" />
<glyph unicode="&#x2010;" horiz-adv-x="657" d="M53 485v189h543v-189h-543z" />
<glyph unicode="&#x2011;" horiz-adv-x="657" d="M53 485v189h543v-189h-543z" />
<glyph unicode="&#x2012;" horiz-adv-x="657" d="M53 485v189h543v-189h-543z" />
<glyph unicode="&#x2013;" horiz-adv-x="1015" d="M53 485v189h901v-189h-901z" />
<glyph unicode="&#x2014;" horiz-adv-x="1425" d="M53 485v189h1311v-189h-1311z" />
<glyph unicode="&#x2018;" horiz-adv-x="385" d="M51 1124q0 79 89 188t139 138l40 -59q-110 -106 -110 -177q0 -24 18.5 -38t41 -21t41 -32.5t18.5 -69.5q0 -121 -144 -121q-46 0 -77.5 30t-43.5 71.5t-12 90.5z" />
<glyph unicode="&#x2019;" horiz-adv-x="378" d="M55 1329q0 121 144 121q46 0 77.5 -30.5t43.5 -72t12 -90.5q0 -42 -29 -97.5t-69 -101.5t-76 -80.5t-54 -45.5l-41 59q53 51 82 92.5t29 83.5q0 20 -12.5 32t-30 19.5t-34.5 17.5t-29.5 33.5t-12.5 59.5z" />
<glyph unicode="&#x201a;" horiz-adv-x="391" d="M59 106q0 121 144 121q46 0 77.5 -30t43.5 -71.5t12 -90.5q0 -79 -88.5 -188t-138.5 -138l-41 60q53 51 81.5 92.5t28.5 83.5q0 24 -18.5 38t-41 21t-41 32.5t-18.5 69.5z" />
<glyph unicode="&#x201c;" horiz-adv-x="770" d="M51 1124q0 79 89 188t139 138l40 -59q-110 -106 -110 -177q0 -24 18.5 -38t41 -21t41 -32.5t18.5 -69.5q0 -121 -144 -121q-46 0 -77.5 30t-43.5 71.5t-12 90.5zM436 1124q0 79 89 188t139 138l41 -59q-111 -107 -111 -177q0 -24 18.5 -38t41 -21t41 -32.5t18.5 -69.5 q0 -121 -144 -121q-46 0 -77.5 30t-43.5 71.5t-12 90.5z" />
<glyph unicode="&#x201d;" horiz-adv-x="763" d="M55 1329q0 121 144 121q46 0 77.5 -30.5t43.5 -72t12 -90.5q0 -42 -29 -97.5t-69 -101.5t-76 -80.5t-54 -45.5l-41 59q53 51 82 92.5t29 83.5q0 20 -12.5 32t-30 19.5t-34.5 17.5t-29.5 33.5t-12.5 59.5zM440 1329q0 121 144 121q46 0 77.5 -30.5t43.5 -72t12 -90.5 q0 -42 -29 -97.5t-69 -101.5t-76 -80.5t-54 -45.5l-40 59q53 51 81.5 92.5t28.5 83.5q0 20 -12.5 32t-30 19.5t-34.5 17.5t-29.5 33.5t-12.5 59.5z" />
<glyph unicode="&#x201e;" horiz-adv-x="722" d="M59 106q0 121 144 121q46 0 77.5 -30t43.5 -71.5t12 -90.5q0 -79 -88.5 -188t-138.5 -138l-41 60q53 51 81.5 92.5t28.5 83.5q0 24 -18.5 38t-41 21t-41 32.5t-18.5 69.5zM391 106q0 121 144 121q46 0 77.5 -30t43.5 -71.5t12 -90.5q0 -79 -89 -188t-139 -138l-41 60 q53 51 82 92.5t29 83.5q0 24 -18.5 38t-41 21t-41 32.5t-18.5 69.5z" />
<glyph unicode="&#x2022;" horiz-adv-x="684" d="M53 580q0 117 84 200.5t201 83.5t201 -83.5t84 -200.5t-84 -201t-201 -84t-201 84t-84 201z" />
<glyph unicode="&#x2026;" horiz-adv-x="1126" d="M59 123q0 55 40 95t96 40q55 0 95 -40t40 -95t-40 -95t-95 -40q-56 0 -96 40t-40 95zM428 123q0 55 40 95t95 40t95 -40t40 -95t-40 -95t-95 -40t-95 40t-40 95zM797 123q0 55 39.5 95t95.5 40t95.5 -40t39.5 -95t-39.5 -95t-95.5 -40t-95.5 40t-39.5 95z" />
<glyph unicode="&#x202f;" horiz-adv-x="334" />
<glyph unicode="&#x2039;" horiz-adv-x="501" d="M51 580l303 376l82 -65l-155 -311l155 -308l-82 -69z" />
<glyph unicode="&#x203a;" horiz-adv-x="505" d="M61 268l156 312l-156 307l82 69l303 -376l-303 -377z" />
<glyph unicode="&#x205f;" horiz-adv-x="418" />
<glyph unicode="&#x20ac;" horiz-adv-x="1159" d="M59 477v119h129v156h-129v118h129v2q0 142 66.5 245.5t177.5 154.5t252 51q301 0 393 -215l-145 -88q-28 41 -50 64.5t-66.5 44t-102.5 20.5q-135 0 -220 -71.5t-85 -176.5v-31h376v-118h-376v-156h376v-119h-376v-28q0 -128 70.5 -207.5t199.5 -79.5q45 0 82.5 4.5 t66.5 15.5t49 19.5t38 25t25.5 23.5t21 24.5t14.5 18.5l121 -105q-20 -32 -57 -64.5t-91 -64t-131.5 -51.5t-163.5 -20q-206 0 -335.5 113t-129.5 313v63h-129z" />
<glyph unicode="&#x2122;" horiz-adv-x="1175" d="M47 1192v119h451v-119h-156v-504h-139v504h-156zM535 688v623h116l168 -400l168 400h117v-623h-139v256l-105 -256h-82l-106 256v-256h-137z" />
<glyph unicode="&#xe000;" horiz-adv-x="1024" d="M0 0v1024h1024v-1024h-1024z" />
</font>
</defs>
</svg>
